<svg xmlns="http://www.w3.org/2000/svg" viewBox="0 0 980 980" fill="none" shape-rendering="auto"><metadata xmlns:rdf="http://www.w3.org/1999/02/22-rdf-syntax-ns#" xmlns:xsi="http://www.w3.org/2001/XMLSchema-instance" xmlns:dc="http://purl.org/dc/elements/1.1/" xmlns:dcterms="http://purl.org/dc/terms/"><rdf:RDF><rdf:Description><dc:title>Lorelei</dc:title><dc:creator>Lisa Wischofsky</dc:creator><dc:source xsi:type="dcterms:URI">https://www.figma.com/community/file/1198749693280469639</dc:source><dcterms:license xsi:type="dcterms:URI">https://creativecommons.org/publicdomain/zero/1.0/</dcterms:license><dc:rights>Remix of „Lorelei” (https://www.figma.com/community/file/1198749693280469639) by „Lisa Wischofsky”, licensed under „CC0 1.0” (https://creativecommons.org/publicdomain/zero/1.0/)</dc:rights></rdf:Description></rdf:RDF></metadata><mask id="viewboxMask"><rect width="980" height="980" rx="490" ry="490" x="0" y="0" fill="#fff" /></mask><g mask="url(#viewboxMask)"><rect fill="#f9d9f1" width="980" height="980" x="0" y="0" /><g transform="translate(10 -60)"><path d="M528 244c41 6 80 22 113 47 28 21 50 49 65 81 13 28 20 60 19 91-1 15-3 30-8 44h-2l1-21c1-30-2-59-13-87-10-30-28-57-50-79-42-40-98-62-156-63a243 243 0 0 0-196 94 207 207 0 0 0-40 139l2 25c8 0 19 0 25 7l-3 3-17 1c-12 1-24 5-33 13a64 64 0 0 0-17 39c-5 32 12 65 39 83 16 10 36 15 55 9 4-2 9-5 14-3 3 1 4 4 5 7a251 251 0 0 0 90 100c8 7 18 13 28 18 18 8 38 14 57 19l32 8c5 1 9 1 13 3l-4 1c-25 2-48-3-72-10-12-3-23-7-34-12a306 306 0 0 1-84-63l2 28c1 17 0 35-6 52-4 12-11 24-19 34-10 10-22 19-34 26-10 7-21 14-32 18l-16 5 9-9 31-20 22-17a95 95 0 0 0 32-56c2-14 2-28 2-43v-27c-10-14-22-29-27-46-17 8-38 7-55-1-17-7-32-19-43-33-12-17-19-36-21-56s2-40 15-56c9-10 22-18 35-21-4-14-6-29-6-44a234 234 0 0 1 83-173 249 249 0 0 1 199-55Z" fill="#000"/><path d="M653 320c22 22 40 49 50 79 11 28 14 57 13 87l-1 21-5 15-2 13 2 56c0 21 1 42-1 63l-3 47c-2 16-7 31-14 45-11 18-26 33-44 44-13 8-27 12-41 16l-38 11-17 3c0 1 1 2 3 2 8 5 17 5 26 4-3 7-4 14-2 22 3 7 11 11 17 14 12 6 24 7 36 9 7 6 14 14 16 24 2 8 2 16-2 23-5 10-14 18-24 23-13 8-27 14-42 18a468 468 0 0 1-222-1c-17-4-33-9-48-17-12-6-23-13-32-22-5-7-9-14-10-23 11-4 22-11 32-18 12-7 24-16 34-26 8-10 15-22 19-34 6-17 7-35 6-52l-2-28 22 23c19 15 40 30 62 40 11 5 22 9 34 12 24 7 47 12 72 10l4-1c-4-2-8-2-13-3l-32-8c-19-5-39-11-57-19l-29-17c-11-9-23-17-33-27a251 251 0 0 1-56-74c-1-3-2-6-5-7-5-2-10 1-14 3-19 6-39 1-55-9a88 88 0 0 1-39-83c1-14 7-28 17-39 9-8 21-12 33-13l17-1 3-3c-6-7-17-7-25-7l-2-25a207 207 0 0 1 40-139 243 243 0 0 1 196-94c58 1 114 23 156 63Z" fill="#8d5a3b"/><path d="M710 522c3 0 3 4 4 6 3 11 4 23 5 34l2 21c1 22 2 43 1 65-1 21-1 44-5 65a136 136 0 0 1-80 99c-15 7-31 11-48 13v15c1 3 3 4 5 6 12 6 23 8 36 11 12 3 24 5 36 11-3 3-7 4-11 4-7 1-15-1-23-1-12-2-24-3-36-9-6-3-14-7-17-14-2-8-1-15 2-22-9 1-18 1-26-4-2 0-3-1-3-2l17-3 38-11c14-4 28-8 41-16 18-11 33-26 44-44 7-14 12-29 14-45l3-47c2-21 1-42 1-63l-2-56 2-13ZM252 549c8 0 17 1 23 7 5 4 10 9 12 15 1 3 0 6-2 8l-13 8c-7 6-7 19 0 25 6 5 14 8 21 11 2 0 5 1 6 3-1 2-3 3-5 3-10 0-20-3-28-9-5-3-8-8-9-13-2-8-2-17 4-24 4-6 11-9 18-12-4-5-7-11-14-13-7-3-15-3-22-5l9-4Z" fill="#000"/><path d="M473 484c4-2 10-1 13 3 5 4 8 11 8 17 2 10 0 21-4 30-3 6-6 12-13 14-6 2-14-1-17-7-5-6-6-15-6-22 1-8 2-16 6-24 3-5 7-9 13-11ZM643 491c4-2 9-2 13 2 5 4 7 12 7 18 1 9-1 18-5 25-2 5-6 8-11 10-5 1-11-1-14-5-3-3-5-7-6-12-1-9 1-18 4-26 3-5 6-10 12-12Z" fill="#000000"/><path d="M480 404c10 1 19 0 29 3 9 3 18 10 22 19 4 6 2 16-6 19-6 4-15 3-23 2-20-3-40-9-60-14l-20-4-10-2-4-4c2-4 6-6 10-7l20-7 18-3 24-2ZM656 410c8 1 15 4 22 7l9 4c2 2 3 6 1 8l-10 4c-17 4-33 11-51 12l-9 1c-3 0-6-2-8-4-3-2-4-5-4-9 0-7 2-15 8-20 4-3 11-4 16-5 8 0 17 0 26 2Z" fill="#6b4226"/><path d="M603 613v1c-4 8-11 15-20 18-3 1-7 1-9-1v-4c7-5 16-9 24-12l5-2Z" fill="#2b1d16"/><path d="M719 585c9 0 17 4 22 11a29 29 0 0 1-6 41c8 2 16 7 22 13 9 11 16 26 15 41-1 8-4 15-8 21-8 13-21 22-35 28l8 9c3 7 4 14 4 22-1 12-6 24-15 33a62 62 0 0 1-38 17c-10 1-21 1-31-2-1 7-3 15-6 22a58 58 0 0 1-70 26c-12-5-22-14-28-24-15 9-31 12-48 12-14 1-31 0-43-7-8-3-13-9-18-15-3-3-5-6-6-11-11 9-26 11-39 9-10-3-19-8-24-17-5-6-6-15-6-23h-14c-8-1-16-5-23-10-11-10-20-23-26-37-2-6-4-12-4-19 0-11 4-22 11-31-3-7-4-14-2-21 3-12 12-22 22-28 9-6 20-8 31-7 2-6 5-10 10-14 11-10 25-16 40-16 10 0 19 1 27 5 4-6 9-9 15-11 11-5 23-4 34 1 19 7 34 18 52 25 5 4 12 3 19 4s14 0 21-1c3-1 7-1 9-3l19-10 20-15c8-5 18-10 28-9 4 1 7 3 9 6a92 92 0 0 1 52-15Z" fill="#9a9a9a"/><path d="M476 660c3 0 5 2 7 4l13 7c11 5 23 8 34 11 15 5 30 6 45 6 12 1 23 2 34 1l4 2c-18 9-41 11-61 10-23-1-46-8-66-18-6-4-13-8-14-16-1-3 1-7 4-7Z" fill="#7a3b2e"/><path fill-rule="evenodd" clip-rule="evenodd" d="M720 460c9 0 17 1 26 4 3 1 5 4 4 8l-4 3-3 3-9 4v21l-2 19-1 6c-1 7-2 14-5 21-3 10-10 17-19 22-5 3-10 5-16 6l-4 1c-12 3-25 2-37 1l-15-2c-7-1-14-6-18-12-5-4-6-9-9-15v-1c-3-7-3-15-4-23v-4a74 74 0 0 1 1-16c-8-4-17-3-25-2h-3l-12 5a169 169 0 0 1-8 52c-3 6-7 11-12 16l-1 1c-6 7-15 11-23 14a256 256 0 0 1-89 9l-27-6a53 53 0 0 1-22-17 99 99 0 0 1-18-50c-1-11-2-21-1-32-6-1-11-2-15-6 0-3 2-5 3-7l11-4 2-2c14-5 28-7 42-10l21-2 10-1c16-1 31-2 47-1h10l24 2h3c10 1 20 2 28 6l10 6 6 5 4 5 12 2h5l7 1 12 1 1-5c1-3 2-6 5-9a57 57 0 0 1 26-11l21-4a302 302 0 0 0 18-1l38-2 5 1Zm-20 12h23c-2 9-3 18-3 28l-2 19c0 8-1 17-4 25-1 6-3 11-8 15-7 6-15 8-23 11-11 1-22 1-32-1l-4-1c-6-1-13-3-16-7-5-6-7-14-9-21v-2c-2-14 0-29 2-43l1-8 9-3 8-2c7-3 13-5 20-5 13-3 25-5 38-5Zm-148 18c-3-5-7-7-12-8a554 554 0 0 0-130-1l-27 4-1 10v14c0 12 1 24 4 36 2 6 5 12 9 17l1 3 9 12c5 4 12 7 18 9a153 153 0 0 0 62 0l26-7c7-2 15-5 20-11 5-5 9-13 11-20l3-21 2-13 1-6c1-6 1-12 4-18Z" fill="#16a085"/><path d="M433 202h40c49 2 97 11 144 22 28 7 54 16 79 30 13 8 27 18 37 30 12 13 20 29 23 46 4 21 4 43-3 64-5 15-14 30-27 40-18 15-41 25-64 26-2 1-4 0-4-3l8-16a97 97 0 0 1-38 23c-4 1-10 2-14 0v-5c0-15-1-29-5-43-3-16-11-29-18-43 2 15 1 31-2 46-3 14-9 26-19 36-2 4-7 5-11 3l-2-7c-2-11-7-21-12-31-9-20-22-37-37-53a250 250 0 0 0-76-52 380 380 0 0 1-10 104c-4 14-10 28-19 40-3 4-7 10-12 12h-7c1-12 1-24-1-36-2-11-5-23-10-33-3 18-13 33-25 47-9 8-18 16-29 22v68l1 30c0 3-3 8-6 9-5-1-9-3-13-6-12-8-23-17-33-28a181 181 0 0 1-46-135 223 223 0 0 1 148-193c20-8 41-13 63-14Z" fill="#9a9a9a"/></g><g transform="translate(10 -60)"></g></g></svg>
